<svg id="Camada_1" data-name="Camada 1" xmlns="http://www.w3.org/2000/svg" viewBox="0 0 1279.29 1264"><defs><style>.cls-1{fill:#7f1718;}.cls-2{fill:none;stroke:#e0e2e3;stroke-miterlimit:10;stroke-width:9px;}</style></defs><title>books</title><path class="cls-1" d="M568.94,496V464a8,8,0,0,0-8-8h-112a8,8,0,0,0-8,8v32Zm0,0"/><path class="cls-1" d="M440.94,512V776h128V512Zm96,104h-64a8,8,0,0,1-8-8V544a8,8,0,0,1,8-8h64a8,8,0,0,1,8,8v64a8,8,0,0,1-8,8Zm0,0"/><path class="cls-1" d="M440.94,824v40a8,8,0,0,0,8,8h112a8,8,0,0,0,8-8V824Zm0,0"/><rect class="cls-1" x="440.94" y="792" width="128" height="16"/><rect class="cls-1" x="584.94" y="792" width="104" height="16"/><path class="cls-1" d="M688.94,424V400a8,8,0,0,0-8-8h-88a8,8,0,0,0-8,8v24Zm0,0"/><rect class="cls-1" x="584.94" y="480.01" width="104" height="295.99"/><path class="cls-1" d="M584.94,824v40a8,8,0,0,0,8,8h88a8,8,0,0,0,8-8V824Zm0,0"/><rect class="cls-1" x="584.94" y="440.01" width="104" height="24"/><path class="cls-1" d="M704.75,557.67,709,574.1,844.51,538l-4.29-16.43Zm0,0"/><path class="cls-1" d="M771.6,813.94l135.48-36.12-8.58-32.89L763,781.06Zm0,0"/><path class="cls-1" d="M894.46,729.45l-45.91-176L713.07,589.58l45.9,176Zm0,0"/><path class="cls-1" d="M700.71,542.19l135.47-36.12L824.7,462a8.18,8.18,0,0,0-9.84-5.76l-120,32a8,8,0,0,0-5.68,9.76Zm0,0"/><path class="cls-1" d="M911.12,793.3,775.63,829.43,785.17,866a8.06,8.06,0,0,0,3.76,4.88,7.74,7.74,0,0,0,4,1.12,9.09,9.09,0,0,0,2.08-.24l120-32A8.06,8.06,0,0,0,920.7,830Zm0,0"/><rect class="cls-2" x="207.13" y="198.2" width="859.61" height="859.61" transform="translate(630.62 -266.44) rotate(45)"/></svg>